<mxfile host="app.diagrams.net" modified="2023-12-06T15:55:03.214Z" agent="Mozilla/5.0 (Windows NT 10.0; Win64; x64) AppleWebKit/537.36 (KHTML, like Gecko) Chrome/119.0.0.0 Safari/537.36" etag="9aGcmpK0btqYDYjSRmhF" version="22.1.6" type="device">
  <diagram name="Page-1" id="rnSwJcyhSH2imrMpfyqT">
    <mxGraphModel dx="1221" dy="759" grid="1" gridSize="10" guides="1" tooltips="1" connect="1" arrows="1" fold="1" page="1" pageScale="1" pageWidth="850" pageHeight="1100" background="#000000" math="0" shadow="0">
      <root>
        <mxCell id="0" />
        <mxCell id="1" parent="0" />
        <mxCell id="wGnrDqQ8kx8-rli7LZU3-1" value="" style="shape=image;verticalLabelPosition=bottom;labelBackgroundColor=default;verticalAlign=top;aspect=fixed;imageAspect=0;image=https://images.vexels.com/media/users/3/157318/isolated/preview/2782b0b66efa5815b12c9c637322aff3-desktop-computer-icon-computer.png;" vertex="1" parent="1">
          <mxGeometry x="540" y="200" width="150" height="150" as="geometry" />
        </mxCell>
        <mxCell id="wGnrDqQ8kx8-rli7LZU3-2" value="" style="shape=image;verticalLabelPosition=bottom;labelBackgroundColor=default;verticalAlign=top;aspect=fixed;imageAspect=0;image=https://images.vexels.com/media/users/3/157318/isolated/preview/2782b0b66efa5815b12c9c637322aff3-desktop-computer-icon-computer.png;" vertex="1" parent="1">
          <mxGeometry x="400" y="430" width="150" height="150" as="geometry" />
        </mxCell>
        <mxCell id="wGnrDqQ8kx8-rli7LZU3-4" value="" style="shape=image;verticalLabelPosition=bottom;labelBackgroundColor=default;verticalAlign=top;aspect=fixed;imageAspect=0;image=https://images.vexels.com/media/users/3/157318/isolated/preview/2782b0b66efa5815b12c9c637322aff3-desktop-computer-icon-computer.png;" vertex="1" parent="1">
          <mxGeometry x="90" y="580" width="150" height="150" as="geometry" />
        </mxCell>
        <mxCell id="wGnrDqQ8kx8-rli7LZU3-5" value="&lt;b style=&quot;font-size: 19px;&quot;&gt;Firebase&lt;br&gt;Geymir mynd&lt;/b&gt;" style="ellipse;shape=cloud;whiteSpace=wrap;html=1;" vertex="1" parent="1">
          <mxGeometry x="330" y="750" width="230" height="160" as="geometry" />
        </mxCell>
        <mxCell id="wGnrDqQ8kx8-rli7LZU3-7" value="" style="shape=image;verticalLabelPosition=bottom;labelBackgroundColor=default;verticalAlign=top;aspect=fixed;imageAspect=0;image=data:image/png,iVBORw0KGgoAAAANSUhEUgAAAgAAAAIACAYAAAD0eNT6AAAAAXNSR0IArs4c6QAAIABJREFUeAHt3UuIbdlZB/Av3SotRPBFWnvgVBCERGdiEHwNDNFZICKC4mMiCOIkEo0acBaIODM4EuNMUKMQH+jEiWAERzoUERMRFVvwEdvI17mVKqtP1dlnr7X2Xo/fhuZWn9qPtX7f+v57V91bpyJsBK4LfHFEfGtEfH9E/HREfCQifjMi/jQi/iYiXo+Iz/mPgTVw2BrInsveyx7MXsyezN7MHs1ezZ61ESBAYJfAl0XE+yLiNyLiXwT7YcHuQcrDZI01kD2bvZs9nL1sI0CAwLMCXxMRPx4Rvx8R/+mm76ZvDUyxBrKXs6ezt7PHbQQIEPiCwFdHxC9HxH8L/CkCv8ZXkM4x53cissez17PnbQQILCzwpRHxgYj4Vzd+N35rYKk1kD2fvZ8ZYCNAYCGBlyLihyLi74T+UqHvq/o5v6ovqWtmQGZBZoKNAIHJBb4xIv7Kjd+N3xqwBh6sgcyEzAYbAQKTCnyfH9kT+g9Cv+QrR8fO992E/NHCzAgbAQKTCfxMRPyv8PcAYA1YA8+sgcyIzAobAQITCLwSER9/puF9JTffV3JqqqalayAzI7PDRoDAoAKvRcSfu/n7is8asAZ2rIHMjswQGwECgwl8+Yu3Ci39SsDxvpq0BtZdA/l2w5klNgIEBhF4OSI+ueOJX9CvG/Rqr/ZPrYHMkswUGwECAwh81M3ft3ytAWug4hrITLERINC5wI9UbPqnviLwuq8WrYH11kBmi40AgU4F3t34/fzfiIg/i4ifjYgfiIhvj4iv99vGOl0NhjWzQP6Gv+y97MHsxezJ7M3s0VYPZ/l7BDJjbAQIdCbwtRHxjw2aP38u+PciIp/+X+1szoZDgMD/F8gezV7Nnm3xvh+ZMZk1NgIEOhL4WIOb/x9ExLs6mqOhECCwXSB7N3u49ncEMmtsBAh0IvANEfE/FRv9LyPiOzuZm2EQIFAmkL2cPV3rQSCzJjPHRoBABwK/W7G5fy0ivqSDORkCAQL1BLKns7drPQRk5tgIEDhZ4NsqNXU+1f/kyXNxeQIE2gpkj9f6bmFmj40AgZME3lbprX7/IyK++6Q5uCwBAscKZK9nz5d+NyDfKjgzyEaAwAkC76vQxBkC7z9h7C5JgMB5AtnzpQ8AeXxmkI0AgRME/qRCE//SCeN2SQIEzhfI3i99CMgMshEgcLDAV1b4u7zfiYiXDh63yxEg0IdA9n5mQMlDQP57gswiGwECBwr8YGHjvh4R7zhwvC5FgEB/ApkBmQUlDwGZRTYCBA4U+K3Cpv3QgWN1KQIE+hXILCh5AMgsshEgcJDAKxHx7wVN++mIePtBY3UZAgT6FsgsyEzY+xCQWZSZZCNA4ACB9xY0azb5TxwwRpcgQGAcgcyEvQ8AeVxmko0AgQMESt7R67MR8RUHjNElCBAYRyAzIbNh70NAZpKNAIEDBD5V0Kh/dMD4XOK6QP7jqw9GxG9HxN+/+C8/ztda/uPMx9fdG/ilx+Wcj5jv9UrY404gs2FvXTOTbAQIHCDwDwWN6tv/BxToyiXyTVj+6Zka5udavDnTtevuDf/S41rN90oZfPqRQMlfA2Qm2QgQaCzwckS88czN41oYf13j8Tn98wK/cEPtct9a2y3XvbaGWn2+5nxrua10nsyGvbXNTMpsshEg0FDgtYIm/UzDcTn1dYFvuvHvWfPvZPOY0u3W6+69CZQeV2u+pV4rH58ZsbeOmU02AgQaCnxzQYPm7wS3nSew599u1Pi71T3X3XsTKD2uxnzPq/D4V86M2FvDzCYbAQINBUp+BPATDcfl1M8LvFoQrHns3q3kuntvBKXHlcx3r5PjPi+QGbG3fn4U0Coi0Fjgxwoa9Fcbj83pnxZ4T0Hd8ti9W8l1994ISo8rme9eJ8d9XiAzYm/9MptsBAg0FMgfE9vboB9uOC6nfl7gpwrqlsfu3Uquu3edlR5XMt+9To77vEBmxN76ZTbZCBBoKPDzBQ2ax9rOESj5SrzkK+KS6+69EZQeVzLfc6o7z1Xlyzy1NJMJBTTomEUt+bv4kr8TL7lu6Y187/El8x1zdfQzavnSTy2MhMBbBDToW0iGeWHPv8av8a/i91x378279Lga8x1mQXQ4UPnSYVEMicCdgAa9kxjvz1t/Hr/Wz8Xfet3Sm/je42vNd7yV0c+I5Us/tTASAm8R0KBvIRnqhVveka/mO+Pdct29N/DS42rOd6hF0dFg5UtHxTAUAo8FNOhjkfH+/9p78rd6b/xr1y29ge89vtV8x1sZ549YvpxfAyMg8KSABn2SZqhPPP6tfEf9drzH19170y497qj5DrUoOhisfOmgCIZA4CkBDfqUjNcJECgVkC+lgo4n0FBAgzbEdWoCiwvIl8UXgOn3LaBB+66P0REYWUC+jFw9Y59eQINOX2ITJHCagHw5jd6FCVwX0KDXjexBgMA+Afmyz81RBA4R0KCHMLsIgSUF5MuSZTfpUQQ06CiVMk4C4wnIl/FqZsQLCWjQhYptqgQOFpAvB4O7HIFbBDToLVr2JUDgFgH5couWfQkcLKBBDwZ3OQILCciXhYptquMJaNDxambEBEYRkC+jVMo4lxTQoEuW3aQJHCIgXw5hdhEC+wQ06D43RxEgcF1Avlw3sgeB0wQ06Gn0LkxgegH5Mn2JTXBkAQ06cvWMnUDfAvKl7/oY3eICJQ1a+jvcHR/BgIE1cHkNZDbZCBBoKOAB4HL4CGUu1sC5a8ADQMPgd2oCKeAB4NyQc5Phbw1cXgMeANyjCDQW8ABwOXyEMhdr4Nw14AGgcfg7PQEPAOeGnJsMf2vg8hrwAOD+RKCxgAeAy+EjlLlYA+euAQ8AjcPf6Ql4ADg35Nxk+FsDl9eABwD3JwKNBTwAXA4foczFGjh3DXgAaBz+Tk/AA8C5Iecmw98auLwGPAC4PxFoLOAB4HL4CGUu1sC5a8ADQOPwd3oCHgDODTk3Gf7WwOU14AHA/YlAYwEPAJfDRyhzsQbOXQMeABqHv9MT8ABwbsi5yfC3Bi6vAQ8A7k8EGgt4ALgcPkKZizVw7hrwANA4/J2egAeAc0POTYa/NXB5DXgAcH8i0Fig5AFAgzYujtMTGFxAvgxeQMOfW0CDzl1fsyNwpoB8OVPftQlcEdCgV4B8mgCB3QLyZTedAwm0F9Cg7Y1dgcCqAvJl1cqb9xACGnSIMhkkgSEF5MuQZTPoVQQ06CqVNk8CxwvIl+PNXZHAZgENupnKjgQI3CggX24EszuBIwU06JHarkVgLQH5sla9zXYwAQ06WMEMl8BAAvJloGIZ6noCGnS9mpsxgaME5MtR0q5DYIeABt2B5hACBDYJyJdNTHYicI6ABj3H3VUJrCAgX1aosjkOK6BBhy2dgRPoXkC+dF8iA1xZQIOuXH1zJ9BWQL609XV2AkUCGrSIz8EECDwjIF+ewfEpAmcLaNCzK+D6BOYVkC/z1tbMJhDQoBMU0RQIdCogXzotjGERSAENah0QINBKQL60knVeAhUENGgFRKcgQOCigHy5yOJFAn0IaNA+6mAUBGYUkC8zVtWcphHQoNOU0kQIdCcgX7oriQERuBfQoPcWPiJAoK6AfKnr6WwEqgpo0KqcTkaAwAMB+fIAw4cEehPQoL1VxHgIzCMgX+appZlMKKBBJyyqKRHoREC+dFIIwyBwSUCDXlLxGgECNQTkSw1F5yDQSECDNoJ1WgIEvNGYNUCgZwEPAD1Xx9gIjC0gX8aun9FPLqBBJy+w6RE4UUC+nIjv0gSuCWjQa0I+T4DAXgH5slfOcQQOENCgByC7BIFFBeTLooU37TEENOgYdTJKAiMKyJcRq2bMywho0GVKbaIEDheQL4eTuyCB7QIadLuVPQkQuE1AvtzmZW8Chwpo0EO5XYzAUgLyZalym+xoAhp0tIoZL4FxBOTLOLUy0gUFNOiCRTdlAgcJyJeDoF2GwB4BDbpHzTEECGwRkC9blOxD4CQBDXoSvMsSWEBAvixQZFMcV0CDjls7IyfQu4B86b1Cxre0gAZduvwmT6CpgHxpyuvkBMoENGiZn6MJEHhaQL48beMzBE4X0KCnl8AACEwrIF+mLa2JzSCgQWeoojkQ6FNAvvRZF6Mi8KaABrUQCBBoJSBfWsk6L4EKAhq0AqJTECBwUUC+XGTxIoE+BDRoH3UwCgIzCsiXGatqTtMIaNBpSmkiBLoTkC/dlcSACNwLaNB7Cx8RIFBXQL7U9XQ2AlUFNGhVTicjQOCBgHx5gOFDAr0JaNDeKmI8BOYRkC/z1NJMJhTQoBMW1ZQIdCIgXzophGEQuCSgQS+peI0AgRoC8qWGonMQaCSgQRvBOi0BAiFfLAICHQto0I6LY2gEBheQL4MX0PDnFtCgc9fX7AicKSBfztR3bQJXBDToFSCfJkBgt4B82U3nQALtBTRoe2NXILCqgHxZtfLmPYSABh2iTAZJYEgB+TJk2Qx6FQENukqlzZPA8QLy5XhzVySwWUCDbqayIwECNwrIlxvB7E7gSAENeqS2axFYS0C+rFVvsx1MQIMOVjDDJTCQgHwZqFiGup6ABl2v5mZM4CgB+XKUtOsQ2CGgQXegOYQAgU0C8mUTk50InCOgQc9xd1UCKwjIlxWqbI7DCmjQYUtn4AS6F5Av3ZfIAFcW0KArV9/cCbQVkC9tfZ2dQJGABi3iczABAs8IyJdncHyKwNkCGvTsCrg+gXkF5Mu8tTWzCQQ06ARFNAUCnQrIl04LY1gEUkCDWgcECLQSkC+tZJ2XQAUBDVoB0SkIELgoIF8usniRQB8CGrSPOhgFgRkF5MuMVTWnaQQ06DSlNBEC3QnIl+5KYkAE7gU06L2FjwgQqCsgX+p6OhuBqgIatCqnkxEg8EBAvjzA8CGB3gQ0aG8VMR4C8wjIl3lqaSYTCmjQCYtqSgQ6EZAvnRTCMAhcEtCgl1S8RoBADQH5UkPROQg0EtCgjWCdlgABbzRmDRDoWcADQM/VMTYCYwvIl7HrZ/STC2jQyQtsegROFJAvJ+K7NIFrAhr0mpDPEyCwV0C+7JVzHIEDBDToAcguQWBRAfmyaOFNewwBDTpGnYySwIgC8mXEqhnzMgIadJlSmyiBwwXky+HkLkhgu4AG3W5lTwIEbhOQL7d52ZvAoQIa9FBuFyOwlIB8WarcJjuagAYdrWLGS2AcAfkyTq2MdEEBDbpg0U2ZwEEC8uUgaJchsEdAg+5RcwwBAlsE5MsWJfsQOElAg54E77IEFhCQLwsU2RTHFdCg49bOyAn0LiBfeq+Q8S0toEGXLr/JE2gqIF+a8jo5gTIBDVrm52gCBJ4WkC9P2/gMgdMFNOjpJTAAAtMKyJdpS2tiMwho0BmqaA4E+hSQL33WxagIvCmgQS0EAgRaCciXVrLOS6CCgAatgOgUBAhcFJAvF1m8SKAPAQ3aRx2MgsCMAvJlxqqa0zQCGnSaUpoIge4E5Et3JTEgAvcCGvTewkcECNQVkC91PZ2NQFUBDVqV08kIEHggIF8eYPiQQG8CGrS3ihgPgXkE5Ms8tTSTCQU06IRFNSUCnQjIl04KYRgELglo0EsqXiNAoIaAfKmh6BwEGglo0EawTkuAQMgXi4BAxwIatOPiGBqBwQXky+AFNPy5BTTo3PU1OwJnCsiXM/Vdm8AVAQ16BcinCRDYLSBfdtM5kEB7AQ3a3tgVCKwqIF9Wrbx5DyGgQYcok0ESGFJAvgxZNoNeRUCDrlJp8yRwvIB8Od7cFQlsFtCgm6nsSIDAjQLy5UYwuxM4UkCDHqntWgTWEpAva9XbbAcT0KCDFcxwCQwkIF8GKpahriegQderuRkTOEpAvhwl7ToEdgho0B1oDiFAYJOAfNnEZCcC5who0HPcXZXACgLyZYUqm+OwAhp02NIZOIHuBeRL9yUywJUFNOjK1Td3Am0F5EtbX2cnUCSgQYv4HEyAwDMC8uUZHJ8icLaABj27Aq5PYF4B+TJvbc1sAgENOkERTYFApwLypdPCGBaBFNCg1gEBAq0E5EsrWeclUEFAg1ZAdAoCBC4KyJeLLF4k0IeABu2jDkZBYEYB+TJjVc1pGgENOk0pTYRAdwLypbuSGBCBewENem/hIwIE6grIl7qezkagqoAGrcrpZAQIPBCQLw8wfEigNwEN2ltFjIfAPALyZZ5amsmEAhp0wqKaEoFOBORLJ4UwDAKXBDToJRWvESBQQ0C+1FB0DgKNBDRoI1inJUDAG41ZAwR6FvAA0HN1jI3A2ALyZez6Gf3kAhp08gKbHoETBeTLifguTeCagAa9JuTzBAjsFZAve+UcR+AAAQ16ALJLEFhUQL4sWnjTHkNAg45RJ6MkMKKAfBmxasa8jIAGXabUJkrgcAH5cji5CxLYLqBBt1vZkwCB2wTky21e9iZwqIAGPZTbxQgsJSBfliq3yY4moEFHq5jxEhhHQL6MUysjXVBAgy5YdFMmcJCAfDkI2mUI7BHQoHvUHEOAwBYB+bJFyT4EThLQoCfBuyyBBQTkywJFNsVxBTTouLUzcgK9C8iX3itkfEsLaNCly2/yBJoKyJemvE5OoExAg5b5OZoAgacF5MvTNj5D4HQBDXp6CQyAwLQC8mXa0prYDAIadIYqmgOBPgXkS591MSoCbwpoUAuBAIFWAvKllazzEqggoEErIDoFAQIXBeTLRRYvEuhDQIP2UQejIDCjgHyZsarmNI2ABp2mlCZCoDsB+dJdSQyIwL2ABr238BEBAnUF5EtdT2cjUFVAg1bldDICBB4IyJcHGD4k0JuABu2tIsZDYB4B+TJPLc1kQgENOmFRTYlAJwLypZNCGAaBSwIa9JKK1wgQqCEgX2ooOgeBRgIatBGs0xIgEPLFIiDQsYAG7bg4hkZgcAH5MngBDX9uAQ06d33NjsCZAvLlTH3XJnBFQINeAfJpAgR2C8iX3XQOJNBeQIO2N3YFAqsKyJdVK2/eQwho0CHKZJAEhhSQL0OWzaBXEdCgq1TaPAkcLyBfjjd3RQKbBTToZio7EiBwo4B8uRHM7gSOFNCgR2q7FoG1BOTLWvU228EENOhgBTNcAgMJyJeBimWo6wlo0PVqbsYEjhKQL0dJuw6BHQIadAeaQwgQ2CQgXzYx2YnAOQIa9Bx3VyWwgoB8WaHK5jisgAYdtnQGTqB7AfnSfYkMcGUBDbpy9c2dQFsB+dLW19kJFAlo0CI+BxMg8IyAfHkGx6cInC2gQc+ugOsTmFdAvsxbWzObQECDTlBEUyDQqYB86bQwhkUgBTSodUCAQCsB+dJK1nkJVBDQoBUQnYIAgYsC8uUiixcJ9CGgQfuog1EQmFFAvsxYVXOaRkCDTlNKEyHQnYB86a4kBkTgXkCD3lv4iACBugLypa6nsxGoKqBBq3I6GQECDwTkywMMHxLoTUCD9lYR4yEwj4B8maeWZjKhgAadsKimRKATAfnSSSEMg8AlAQ16ScVrBAjUEJAvNRSdg0AjAQ3aCNZpCRDwRmPWAIGeBTwA9FwdYyMwtoB8Gbt+Rj+5gAadvMCmR+BEAflyIr5LE7gmoEGvCfk8AQJ7BeTLXjnHEThAQIMegOwSBBYVkC+LFt60xxDQoGPUySgJjCggX0asmjEvI6BBlym1iRI4XEC+HE7uggS2C2jQ7Vb2JEDgNgH5cpuXvQkcKqBBD+V2MQJLCciXpcptsqMJaNDRKma8BMYRkC/j1MpIFxTQoAsW3ZQJHCQgXw6CdhkCewQ06B41xxAgsEVAvmxRsg+BkwQ06EnwLktgAQH5skCRTXFcAQ06bu2MnEDvAvKl9woZ39ICGnTp8ps8gaYC8qUpr5MTKBPQoGV+jiZA4GkB+fK0jc8QOF1Ag55eAgMgMK2AfJm2tCY2g4AGnaGK5kCgTwH50mddjIrAmwIa1EIgQKCVgHxpJeu8BCoIaNAKiE5BgMBFAflykcWLBPoQ0KB91MEoCMwoIF9mrKo5TSOgQacppYkQ6E5AvnRXEgMicC+gQe8tfESAQF0B+VLX09kIVBXQoFU5nYwAgQcC8uUBhg8J9CagQXuriPEQmEdAvsxTSzOZUECDTlhUUyLQiYB86aQQhkHgkoAGvaTiNQIEagjIlxqKzkGgkYAGbQTrtAQIhHyxCAh0LKBBOy6OoREYXEC+DF5Aw59bQIPOXV+zI3CmgHw5U9+1CVwR0KBXgHyaAIHdAvJlN50DCbQX0KDtjV2BwKoC8mXVypv3EAIadIgyGSSBIQXky5BlM+hVBDToKpU2TwLHC8iX481dkcBmAQ26mcqOBAjcKCBfbgSzO4EjBTTokdquRWAtAfmyVr3NdjABDTpYwQyXwEAC8mWgYhnqegIadL2amzGBowTky1HSrkNgh4AG3YHmEAIENgnIl01MdiJwjoAGPcfdVQmsICBfVqiyOQ4roEGHLZ2BE+heQL50XyIDXFlAg65cfXMn0FZAvrT1dXYCRQIatIjPwQQIPCMgX57B8SkCZwto0LMr4PoE5hWQL/PW1swmENCgExTRFAh0KiBfOi2MYRFIAQ1qHRAg0EpAvrSSdV4CFQQ0aAVEpyBA4KKAfLnI4kUCfQho0D7qYBQEZhSQLzNW1ZymEdCg05TSRAh0JyBfuiuJARG4F9Cg9xY+IkCgroB8qevpbASqCmjQqpxORoDAAwH58gDDhwR6E9CgvVXEeAjMIyBf5qmlmUwooEEnLKopEehEQL50UgjDIHBJQINeUvEaAQI1BORLDUXnINBIQIM2gnVaAgS80Zg1QKBnAQ8APVfH2AiMLSBfxq6f0U8uoEEnL7DpEThRQL6ciO/SBK4JaNBrQj5PgMBeAfmyV85xBA4Q0KAHILsEgUUF5MuihTftMQQ06Bh1MkoCIwrIlxGrZszLCGjQZUptogQOF5Avh5O7IIHtAhp0u5U9CRC4TUC+3OZlbwKHCmjQQ7ldjMBSAvJlqXKb7GgCGnS0ihkvgXEE5Ms4tTLSBQU06IJFN2UCBwnIl4OgXYbAHgENukfNMQQIbBGQL1uU7EPgJAENehK8yxJYQEC+LFBkUxxXQIOOWzsjJ9C7gHzpvULGt7SABl26/CZPoKmAfGnK6+QEygQ0aJmfowkQeFpAvjxt4zMEThfQoKeXwAAITCsgX6YtrYnNIKBBZ6iiORDoU0C+9FkXoyLwpoAGtRAIEGglIF9ayTovgQoCGrQColMQIHBRQL5cZPEigT4ENGgfdTAKAjMKyJcZq2pO0who0GlKaSIEuhOQL92VxIAI3Ato0HsLHxEgUFdAvtT1dDYCVQU0aFVOJyNA4IGAfHmA4UMCvQlo0N4qYjwE5hGQL/PU0kwmFNCgExbVlAh0IiBfOimEYRC4JKBBL6l4jQCBGgLypYaicxBoJKBBG8E6LQECIV8sAgIdC2jQjotjaAQGF5AvgxfQ8OcW0KBz19fsCJwpIF/O1HdtAlcENOgVIJ8mQGC3gHzZTedAAu0FNGh7Y1cgsKqAfFm18uY9hIAGHaJMBklgSAH5MmTZDHoVAQ26SqXNk8DxAvLleHNXJLBZQINuprIjAQI3CsiXG8HsTuBIAQ16pLZrEVhLQL6sVW+zHUxAgw5WMMMlMJCAfBmoWIa6noAGXa/mZkzgKAH5cpS06xDYIaBBd6A5hACBTQLyZROTnQicI6BBz3F3VQIrCMiXFapsjsMKaNBhS2fgBLoXkC/dl8gAVxbQoCtX39wJtBWQL219nZ1AkYAGLeJzMAECzwjIl2dwfIrA2QIa9OwKuD6BeQXky7y1NbMJBDToBEU0BQKdCsiXTgtjWARSQINaBwQItBKQL61knZdABQENWgHRKQgQuCggXy6yeJFAHwIatI86GAWBGQXky4xVNadpBDToNKU0EQLdCciX7kpiQATuBTTovYWPCBCoKyBf6no6G4GqAhq0KqeTESDwQEC+PMDwIYHeBDRobxUxHgLzCMiXeWppJhMKaNAJi2pKBDoRkC+dFMIwCFwS0KCXVLxGgEANAflSQ9E5CDQS0KCNYJ2WAAFvNGYNEOhZwANAz9UxNgJjC8iXsetn9JMLaNDJC2x6BE4UkC8n4rs0gWsCGvSakM8TILBXQL7slXMcgQMENOgByC5BYFEB+bJo4U17DAENOkadjJLAiALyZcSqGfMyAhp0mVKbKIHDBeTL4eQuSGC7gAbdbmVPAgRuE5Avt3nZm8ChAhr0UG4XI7CUgHxZqtwmO5qABh2tYsZLYBwB+TJOrYx0QQENumDRTZnAQQLy5SBolyGwR0CD7lFzDAECWwTkyxYl+xA4SUCDngTvsgQWEJAvCxTZFMcV0KDj1s7ICfQuIF96r5DxLS2gQZcuv8kTaCogX5ryOjmBMgENWubnaAIEnhaQL0/b+AyB0wU06OklMAAC0wrIl2lLa2IzCGjQGapoDgT6FJAvfdbFqAi8KaBBLQQCBFoJyJdWss5LoIKABq2A6BQECFwUkC8XWbxIoA8BDdpHHYyCwIwC8mXGqprTNAIadJpSmgiB7gTkS3clMSAC9wIa9N7CRwQI1BWQL3U9nY1AVQENWpXTyQgQeCAgXx5g+JBAbwIatLeKGA+BeQTkyzy1NJMJBTTohEU1JQKdCMiXTgphGAQuCWjQSypeI0CghoB8qaHoHAQaCWjQRrBOS4BAyBeLgEDHAhq04+IYGoHBBeTL4AU0/LkFNOjc9TU7AmcKyJcz9V2bwBUBDXoFyKcJENgtIF920zmQQHsBDdre2BUIrCogX1atvHkPIaBBhyiTQRIYUkC+DFk2g15FQIOuUmnzJHC8gHw53twVCWwW0KCbqexIgMCNAvLlRjC7EzhSQIMeqe1aBNYSkC9r1dtsBxMoadDPRUSr//4+In47Ij4YEe9oaJrnzmvktfKarebjvGytgdvWwIca9r1TEyAQUfROXUcF2j9FxPsbVCvPmec+ah6uw9oa2L4G8osTGwECDQV6/Q7ApaD8hYoOea5L1/Ca5EGuAAAMU0lEQVQaF2ugjzXgAaBi4DkVgUsCIz0AfDYivunSJG58Lc+R5xL0DKyBfteAB4Abg83uBG4VGOkBIMP6U7dO8ML+eQ7Bz8Aa6HsN+DcAF8LLSwRqCoz2AJCh/WoBQB4r+BlYA/2vAd8BKAg6hxLYIjDiA8B7tkzsiX3yWOHPwBrofw14AHgixLxMoJbAiA8AP1Uw+TxW+DOwBvpfAx4ACoLOoQS2CIz4AOA7AP2HtxusGpWuAQ8AWxLcPgQKBEZ8APBvANxcSm8uju9/DXkAKAh2hxLYIjDaA4CfAug/uN1c1ajGGvBTAFsS3D4ECgRGegDwPgBuLDVuLM4xxjryHYCCYHcogS0CIz0AeCfAMYLbDVadaqwBDwBbEtw+BAoERngA8LsA3FBq3FCcY6x15AGgINgdSmCLQK8PAH4b4Fhh7eaqXrXXgH8DsCXB7UOgQKDkAcATegG8QwksICBfFiiyKY4roEHHrZ2RE+hdQL70XiHjW1pAgy5dfpMn0FRAvjTldXICZQIatMzP0QQIPC0gX5628RkCpwto0NNLYAAEphWQL9OW1sRmENCgM1TRHAj0KSBf+qyLURF4U0CDWggECLQSkC+tZJ2XQAUBDVoB0SkIELgoIF8usniRQB8CGrSPOhgFgRkF5MuMVTWnaQQ06DSlNBEC3QnIl+5KYkAE7gU06L2FjwgQqCsgX+p6OhuBqgIatCqnkxEg8EBAvjzA8CGB3gQ0aG8VMR4C8wjIl3lqaSYTCmjQCYtqSgQ6EZAvnRTCMAhcEtCgl1S8RoBADQH5UkPROQg0EtCgjWAnPu1LEfEtEfGLEfHrEfHHEfHXEfFvL/7Lj/O1/Fzuk/vmMbb1BOTLejU344EENOhAxTpxqG+LiO+JiI9FxKcj4nM3/pfH5LF5jjyXbQ0B+bJGnc1yUAENOmjhDhz2d0XEp2684T/3gJDnynPa5heQL/PX2AwHFtCgAxev8dDfGRF/WPHG//ihIM+d17DNKyBf5q2tmU0goEEnKGKDKfxwRPxXw5v/3cNAXiOvZZtTQL7MWVezmkRAg05SyErTeDkiPnrAjf/uAeDuz7xmXts2l4B8maueZjOZgAadrKAF03klIj55ws3/7iEgr51jsM0jIF/mqaWZTCigQScs6s4pffzEm//dQ0COwTaPgHyZp5ZmMqGABp2wqDum9IEObv53DwE5FtscAvJljjqaxaQCGnTSwt4wrfdGxBsdPQDkWHJMtvEF5Mv4NTSDiQU06MTF3TC1t0fEZzq6+d99FyDHlGOzjS0gX8aun9FPLqBBJy/wlemV1P/uZt3qzxybbWyBkvWl/mPX3ugHENCgAxSp0RBfjYjXO/zq/+6BIseWY7SNKyBfxq2dkS8goEEXKPITU/yVjm/+dw8BOUbbuALyZdzaGfkCAhp0gSJfmOIXRcQ/D/AAkGPMsdrGFJAvY9bNqBcR0KCLFPrRNL+j0s0//7HehyPieyPitRf/5cf5Wq1/XJhjtY0pIF/GrJtRLyKgQRcp9KNp1vj2f75pz1c9Ou/D/83P1XhzIX8N8FB1rI/ly1j1MtrFBDToYgV/Md2/LfwOwM/dwJb73v2d/p4/c6y2MQXky5h1M+pFBDToIoV+MM13FN6Q/+LGv5fPv8PPY/bc/O+OyTHbxhOQL+PVzIgXEtCgCxX7xVTfWXgzftcOsjzm7ma+588cs208AfkyXs2MeCEBDbpQsV9M9T0FN+NPF3DlsXtu/nlMjtk2noB8Ga9mRryQgAZdqNgvpvqjBTfiTxRw5bF7HwByzLbxBOTLeDUz4oUENOhCxX4x1ZLf/PeRAq48du8DgN8QWAB/4qHy5UR8lyZwTUCDXhOa7/O+AzBfTXudkXzptTLGRSAiNOh6y8C/AViv5mfNWL6cJe+6BDYIaNANSJPt4qcAJitox9ORLx0Xx9AIaND11oD3AViv5mfNWL6cJe+6BDYIaNANSBPu4p0AJyxqh1OSLx0WxZAI3Alo0DuJtf70uwDWqvdZs5UvZ8m7LoENAhp0A9KEu/htgBMWtcMpyZcOi2JIBO4ENOidxFp/5vvz/3PBz+Xv/Xn+W4/LMeZYbWMKyJcx62bUiwho0EUKfWGaNf4a4NYb+q37+1XAFwo30EvyZaBiGep6Ahp0vZrfzfjViHi94+8C5NhyjLZxBeTLuLUz8gUENOgCRX5miiX1v/Wr+Vv3z7HZxhYoWV/qP3btjX4AAQ06QJEaDvHtEfGZDr8LkGPKsdnGFpAvY9fP6CcX0KCTF3jD9N4bEW909BCQY8kx2cYXkC/j19AMJhbQoBMX94aplfyGwFu/tX9tf7/574bCdb6rfOm8QIa3tsAHC77y+/DadNPN/uMFa+HaTX3r53MMtnkEMiO21v7xfplNNgIEGgr8WEGD/mrDcTn18QKvRMQnC9bD4wC/9f/z2jkG2zwCmRG3roO7/TObbAQINBTIv2u9a7hb//xEw3E59TkCL0fERwvWxK1r6G7/vGZe2zaXQGbEXY1v/dO/A5lrLZhNhwLfXNCgf9nhfAypjsAPR8R/FayNrWGf18hr2eYUyIzYuhYe75fZZCNAoKHAawUNmj+qZZtX4J0R8YcF6+NxoD/+/zx3XsM2r0DJj5hmNtkIEGgokN92LfkRsK9rODan7kPguyLiUxUfBPJceU7b3AKZDY8f+rb+f2aSvxKae32YXScC/1DQqD/RyRwMo63A2yLieyLiYxHx6R3rJY/JY/MceS7b/AKZDVtv+I/3y0yyESBwgEDJV3d/dMD4XKIvgZci4lsi4hcj4tcj4o8j4q8j4t9e/Jcf52v5udwn981jbGsJZDY8vrFv/f/MJBsBAgcI/FpBo342Ir7igDG6BAEC4whkJmQ2bL3hP94vM8lGgMABAiU/CpiN668BDiiSSxAYSKDk2/+ZKX4EcKBiG+rYAvnmK/9e8LSef7/rF7eMvQaMnkAtgcyCPf9O5O67AJlF3hCqVjWch8AGgd8qeADIxv3QhmvYhQCB+QUyC+5u5nv+zCyyESBwoMAPFjbt6xHxjgPH61IECPQnkBmQWbDnxn93TGaRjQCBAwW+MiL+p7Bxf8e/9j6wYi5FoC+B/EmPzIC7G/mePzODMotsBAgcLPAnhc2bDf9LB4/Z5QgQ6EMge3/PTf/hMZlBNgIEThB4X4UGzmZ+/wljd0kCBM4TyJ5/eCPf+3FmkI0AgRME8h3a/rxCI/9HRHz3CeN3SQIEjhfIXs+e33vTvzsus8e7RB5fP1ck8AWBb6vQyNnQ+Xd5P/mFs/qAAIEZBbLHS//t0N0DQGaPjQCBkwV+t9JDQDZ2vqPXl5w8H5cnQKCuQPZ0yTuI3t307/7MzLERINCBwDdUfKrPBs/fCf6dHczLEAgQKBfIXs6evrt5l/6Z30HIzLERINCJQP7mttLGfnz8H0TEuzqZn2EQIHCbQPZu9vDjvi79/8waGwECHQl8bUT8Y4Nm/9+I+L2I+JGIeLWj+RoKAQJvFcgezV7Nns3eLb3ZPz4+MyazxkaAQGcC746I/27Q9Hch8EZE/FlE/GxE/EBEfHtEfH1EfFlnDoZDYHaB7LnsvezB7MXsyezN7NG7fq39Z2ZLZoyNAIFOBfLpv3bjOx9Ta8AayGyxESDQucBHPQR4CLIGrIGKayAzxUaAwAACL0fEJys2v6/+fPVnDay7BjJLMlNsBAgMIvDlEfE3HgJ8FWgNWAMFayAzJLPERoDAYAKvVXqrYF/9rfvVn9qvW/t8q9/MEBsBAoMKvBIRHy/4CsANYN0bgNqvW/vMjMwOGwECEwj8TKOfC3aTWPcmofbz1T7fOyCzwkaAwGQC3xcRr/tugL8TtgasgQtrILMhM8JGgMCkAt8YEX91ofl9NTffV3NqqqZb10BmQmaDjQCByQVeiogfioi/8yDgK0FrYOk1kBmQWZCZYCNAYCGBL42ID0TEv7oJLH0T2PpVov3m+Y5C9nz2fmaAjQCBhQW+OiJ+ufHvEXDzmOfmoZbj1jLfzz97PXveRoAAgS8IfE1E/HhE/H5E/KfvCviugDUwxRrIXs6ezt7OHrcRIEDgWYH8bWPvi4jfiIh/cSOY4kbgK/dxv3K/tXbZs9m72cN+W+ezUeeTBAg8J/DFEfGtEfH9EfHTEfGRiPjNiPjTF2837EcL17mx3Hojsn+btZE9l2/Tmz2YvZg9mb2ZPZq9mj1rI/CswP8BKAEWtedAcEYAAAAASUVORK5CYII=;" vertex="1" parent="1">
          <mxGeometry x="130" y="290" width="161" height="161" as="geometry" />
        </mxCell>
        <mxCell id="wGnrDqQ8kx8-rli7LZU3-8" value="&lt;font style=&quot;font-size: 14px;&quot; color=&quot;#f7f7f7&quot;&gt;Subscriber&lt;br&gt;RaspberryPi&lt;br&gt;&lt;/font&gt;" style="text;strokeColor=none;fillColor=none;html=1;fontSize=24;fontStyle=1;verticalAlign=middle;align=center;" vertex="1" parent="1">
          <mxGeometry x="100" y="700" width="100" height="80" as="geometry" />
        </mxCell>
        <mxCell id="wGnrDqQ8kx8-rli7LZU3-10" value="&lt;font style=&quot;font-size: 14px;&quot; color=&quot;#f0f0f0&quot;&gt;Broker&lt;br&gt;Hýsir vefsíðu&lt;br&gt;&lt;/font&gt;" style="text;strokeColor=none;fillColor=none;html=1;fontSize=24;fontStyle=1;verticalAlign=middle;align=center;" vertex="1" parent="1">
          <mxGeometry x="420" y="560" width="100" height="40" as="geometry" />
        </mxCell>
        <mxCell id="wGnrDqQ8kx8-rli7LZU3-11" value="&lt;font color=&quot;#f0f0f0&quot; style=&quot;font-size: 14px;&quot;&gt;Publisher&lt;br&gt;Keypad log&lt;br&gt;&lt;/font&gt;" style="text;strokeColor=none;fillColor=none;html=1;fontSize=24;fontStyle=1;verticalAlign=middle;align=center;" vertex="1" parent="1">
          <mxGeometry x="570" y="340" width="100" height="40" as="geometry" />
        </mxCell>
        <mxCell id="wGnrDqQ8kx8-rli7LZU3-13" value="" style="shape=flexArrow;endArrow=classic;html=1;rounded=0;strokeColor=#E8E8E8;fillColor=default;" edge="1" parent="1">
          <mxGeometry width="50" height="50" relative="1" as="geometry">
            <mxPoint x="460" y="740" as="sourcePoint" />
            <mxPoint x="460" y="630" as="targetPoint" />
          </mxGeometry>
        </mxCell>
        <mxCell id="wGnrDqQ8kx8-rli7LZU3-14" value="" style="shape=flexArrow;endArrow=classic;html=1;rounded=0;strokeColor=#E8E8E8;fillColor=default;" edge="1" parent="1">
          <mxGeometry width="50" height="50" relative="1" as="geometry">
            <mxPoint x="380" y="470" as="sourcePoint" />
            <mxPoint x="300" y="440" as="targetPoint" />
          </mxGeometry>
        </mxCell>
        <mxCell id="wGnrDqQ8kx8-rli7LZU3-15" value="" style="shape=flexArrow;endArrow=classic;html=1;rounded=0;strokeColor=#E8E8E8;fillColor=default;" edge="1" parent="1">
          <mxGeometry width="50" height="50" relative="1" as="geometry">
            <mxPoint x="230.5" y="730" as="sourcePoint" />
            <mxPoint x="320" y="800" as="targetPoint" />
          </mxGeometry>
        </mxCell>
        <mxCell id="wGnrDqQ8kx8-rli7LZU3-16" value="" style="shape=flexArrow;endArrow=classic;html=1;rounded=0;strokeColor=#E8E8E8;fillColor=default;" edge="1" parent="1">
          <mxGeometry width="50" height="50" relative="1" as="geometry">
            <mxPoint x="380" y="580" as="sourcePoint" />
            <mxPoint x="260" y="630" as="targetPoint" />
          </mxGeometry>
        </mxCell>
        <mxCell id="wGnrDqQ8kx8-rli7LZU3-17" value="" style="shape=flexArrow;endArrow=classic;html=1;rounded=0;strokeColor=#E8E8E8;fillColor=default;" edge="1" parent="1" target="wGnrDqQ8kx8-rli7LZU3-2">
          <mxGeometry width="50" height="50" relative="1" as="geometry">
            <mxPoint x="530" y="340" as="sourcePoint" />
            <mxPoint x="530" y="460" as="targetPoint" />
          </mxGeometry>
        </mxCell>
      </root>
    </mxGraphModel>
  </diagram>
</mxfile>
